<svg width="183" height="57" viewBox="0 0 183 57" fill="none" xmlns="http://www.w3.org/2000/svg">
<g clip-path="url(#clip0_40_149)">
<circle cx="28.3132" cy="28.3132" r="28.3132" fill="white"/>
<path d="M45.2379 40.7668C44.9119 41.3944 44.506 41.7603 44.0256 42.0943C41.4185 43.9144 38.5501 45.1 35.3474 45.3436C26.665 46.0045 19.2258 43.2117 12.9061 37.3644C12.1911 36.7034 11.4859 36.0313 10.8032 35.3383C9.48286 33.9983 7.87309 34.2779 6.66501 35.0155C5.28701 35.8573 4.74901 37.3602 5.28841 38.9007C5.90507 40.6624 7.15243 42.0164 8.41104 43.3342C11.6783 46.7546 15.7169 49.0326 20.0419 50.8652C20.9142 51.2353 21.7865 51.6069 22.6757 51.9284C23.1266 52.0912 23.1532 52.3347 22.892 52.6255C22.1321 53.4702 21.8441 54.4443 21.9551 55.5561C21.9887 55.8971 21.8357 55.9778 21.4873 55.9179C20.1725 55.6897 18.9574 55.1915 17.7635 54.6363C9.18779 50.6551 3.79663 44.0494 1.3623 35.0544C0.578479 31.8219 0.603763 28.6825 0.827109 25.4611C1.06169 22.0741 1.99019 18.8414 3.52833 15.8539C4.57342 13.8208 4.56921 14.3148 5.95283 15.2777C7.07658 16.0584 7.88987 15.9749 9.04318 15.2053C9.78347 14.7114 10.3762 14.0601 10.9929 13.4339C13.4047 10.9806 16.2057 9.0881 19.4042 7.78141C19.9828 7.54487 20.5939 7.40572 21.2106 7.28048C21.5787 7.20533 21.8019 7.28743 21.9551 7.59358C24.3079 12.3012 28.6555 14.518 33.2559 16.384C35.9248 17.4666 38.7369 18.0149 41.6138 18.232C42.9763 18.335 44.2573 18.0581 45.6227 17.8075C45.9557 17.7463 46.4038 17.6169 46.5498 17.9843C46.7071 18.3781 46.6468 18.8457 46.2703 19.1894C45.5314 19.8642 44.6015 20.0814 43.659 20.1816C38.1217 20.7674 32.9875 19.4774 28.161 16.8363C27.2087 16.3158 26.2914 15.7313 25.3587 15.1734C23.7854 14.2313 21.9762 14.4859 20.8229 15.8107C19.6837 17.1215 19.6655 19.0126 20.8019 20.368C22.1826 22.0156 24.0102 23.076 25.8783 24.0709C29.775 26.1472 33.9132 27.451 38.3197 27.9603C41.6236 28.343 44.8923 28.375 48.1442 27.5665C49.4041 27.2534 49.5179 27.4204 49.2609 28.7062C48.9462 30.2758 47.8801 31.2138 46.5498 31.9206C45.0861 32.6986 43.4834 33.0478 41.8455 33.0255C33.4806 32.9128 25.9205 30.4261 19.2398 25.4054C18.4068 24.7792 17.5753 24.1544 16.7029 23.5825C15.3039 22.6641 13.8303 23.1928 12.6981 24.1405C11.5197 25.1271 11.2499 26.4143 11.8596 27.81C12.2262 28.6478 12.8007 29.3379 13.4567 29.9656C18.4617 34.7524 24.4006 37.9113 31.0575 39.8149C33.9315 40.6374 36.8673 41.0854 39.8551 41.1564C41.5098 41.1953 43.1336 40.9324 44.7869 40.8071C44.9176 40.7974 45.0566 40.7765 45.2379 40.7668Z" fill="#EE2425"/>
<path d="M7.25391 11.9206C7.66785 11.1683 8.04138 10.7997 8.40931 10.2996C9.10057 9.36025 11.697 6.92869 12.3075 6.53106C14.0984 5.36449 15.8725 4.16327 17.8391 3.28349C20.306 2.17926 22.8495 1.37291 25.5365 0.968352C27.2745 0.706496 29.0153 0.623368 30.7504 0.746675C33.7971 0.962811 36.7419 1.66941 39.5363 2.9205C41.0415 3.59384 42.4812 4.37664 43.8693 5.27166C44.7934 5.86742 45.3955 6.39251 46.1313 6.97442C47.2588 7.86807 48.0198 8.67438 48.9411 9.60132C49.3647 10.0266 49.702 10.4977 50.0449 10.9494C50.5926 11.674 51.1069 12.3681 51.5821 13.1093C53.3284 15.8291 54.5576 18.7593 55.2364 21.9265C55.5722 23.4949 55.7828 25.0785 55.897 26.6649C56.0113 28.2402 55.851 29.8224 55.6587 31.4019C55.405 33.487 54.9493 35.5112 54.2525 37.4882C53.6392 39.2256 52.7988 40.8494 51.8566 42.4358C51.171 43.5913 50.2999 44.5861 49.4749 45.6293C48.6748 46.6407 47.7062 47.4706 46.8073 48.3754C44.4784 50.7141 41.6408 52.2589 38.5914 53.449C36.4743 54.2748 34.4256 54.8469 32.1873 55.1837C30.3657 55.4579 28.8703 55.4039 26.9692 55.3263C26.5442 55.3153 26.154 55.2668 25.5491 55.0797C25.5881 54.6668 25.8641 54.2512 26.4773 54.2664C28.0577 54.3011 30.1846 54.4784 31.7357 54.2484C32.4549 54.1417 33.1238 53.8619 33.6828 53.3728C34.6793 52.5041 34.2654 50.8042 32.7963 50.2901C31.8069 49.9438 30.7616 49.8731 29.7399 49.7636C27.4111 49.5129 25.1505 49.0141 22.968 48.198C20.2544 47.1839 17.6579 45.8884 15.244 44.3146C14.0385 43.529 11.1173 41.0185 10.6754 40.5945C9.98284 39.9308 8.21692 38.1104 8.59742 37.8485C8.84692 37.6767 9.92421 38.871 10.7033 39.5471C13.2719 41.7791 15.8196 43.9003 18.9248 45.319C21.899 46.6782 24.979 47.6619 28.2403 48.0913C29.8264 48.3006 31.4152 48.4987 33.0054 48.4585C37.2436 48.3518 41.1517 47.2794 44.8463 45.0447C46.5188 44.0333 48.2846 42.0548 48.9466 41.1972C49.532 40.4408 50.4936 39.2589 50.5842 38.2974C50.7529 36.5143 50.0895 35.9199 48.0115 36.463C46.615 36.8274 45.3299 37.1849 43.8777 37.3746C42.1384 37.6019 40.1927 37.6877 38.4074 37.5382C35.4388 37.2901 32.5775 36.6736 29.7859 35.7024C26.7267 34.6383 23.8279 33.2445 21.0669 31.5418C19.8711 30.8033 18.7199 30.0025 17.5952 29.1796C16.759 28.5672 14.7953 26.9115 15.1604 26.5305C15.5046 26.1717 18.2474 28.5131 19.7889 29.4621C23.2313 31.582 26.7212 33.3553 30.6166 34.4652C32.6904 35.0568 34.7893 35.5458 36.9218 35.78C39.4011 36.0515 41.829 36.0695 44.3195 35.6276C46.0143 35.3269 47.7271 34.9487 49.0734 33.8722C50.764 32.5199 51.9862 30.8393 52.2873 28.6101C52.4071 27.7262 52.4212 26.8464 52.4142 25.9638C52.4015 24.232 51.5919 22.8118 49.2546 23.5143C47.9947 23.8925 46.7306 24.2874 45.4401 24.5257C44.8951 24.6255 44.2986 24.6587 43.7356 24.7266C42.3892 24.8873 41.1976 24.8264 39.7133 24.728C38.4228 24.6421 37.1266 24.365 35.8444 24.1045C32.7685 23.4811 29.8947 22.3048 27.1463 20.8265C26.1024 20.2653 25.2187 19.7915 24.122 18.9782C23.7652 18.7136 23.1366 18.1705 23.347 17.9488C23.6048 17.6745 24.455 18.2827 24.8968 18.5515C26.5985 19.5837 28.0634 20.4302 29.6716 21.0994C31.7162 21.9501 33.6298 22.4682 35.7998 22.8534C37.9517 23.2358 40.1342 23.3176 42.3321 23.2732C43.7662 23.2441 45.1418 23.0682 46.4839 22.6068C47.964 22.0984 49.2518 21.2421 49.5543 19.6585C49.8038 18.352 49.6685 16.9637 49.0692 15.7016C48.8114 15.1598 48.5452 14.5447 47.9334 14.2177C47.132 13.7896 46.4059 13.924 45.6268 14.1207C44.2177 14.4768 42.7878 14.704 41.3286 14.6929C39.6325 14.6791 37.6716 14.2108 36.0576 13.8062C34.4367 13.3989 31.3302 12.2046 28.6222 10.2871C26.6585 8.89605 25.2411 7.2903 24.5609 4.96269C24.2752 3.98455 23.7791 3.67281 22.7631 3.63264C21.2732 3.57167 19.874 4.00117 18.5234 4.51796C16.3757 5.33955 14.3841 6.33294 12.5137 7.68514C11.2984 8.56492 10.0887 9.61375 9.2065 10.4368C8.70619 10.9023 7.79609 11.8665 7.25391 11.9206ZM32.7072 2.80689C31.3051 2.8055 30.1483 3.03826 29.3413 3.48301C28.6584 3.85985 28.3602 4.56784 28.5233 5.29521C28.7559 6.33156 29.4208 7.10188 30.1372 7.80709C30.7309 8.3918 31.4166 8.90717 32.126 9.35327C34.558 10.8856 37.2353 11.7197 40.1077 11.8416C40.9133 11.8763 41.7592 11.7515 42.5356 11.5257C44.0268 11.0934 44.9745 9.83681 43.8763 8.18808C43.2171 7.19886 42.406 6.38974 41.4986 5.74826C38.8882 3.90003 35.9378 2.89971 32.7072 2.80689Z" fill="#074367"/>
<path d="M66.0039 30.7304V12.6501H69.2792V20.9575H69.4999L76.5534 12.6501H80.5532L73.5612 20.7633L80.6146 30.7304H76.677L71.283 22.9792L69.2792 25.3452V30.7304H66.0039ZM86.1447 30.7304H82.6483L89.014 12.6501H93.0572L99.4312 30.7304H95.9348L91.1064 16.358H90.9648L86.1447 30.7304ZM86.2593 23.6413H95.794V26.2721H86.2593V23.6413ZM102.807 30.7304V12.6501H109.587C110.976 12.6501 112.141 12.8914 113.083 13.3741C114.03 13.8566 114.746 14.5335 115.229 15.4045C115.717 16.2697 115.961 17.2791 115.961 18.4327C115.961 19.5921 115.714 20.5985 115.22 21.4519C114.731 22.2994 114.01 22.9557 113.057 23.4206C112.103 23.8796 110.932 24.1092 109.543 24.1092H104.714V21.3901H109.102C109.914 21.3901 110.579 21.2783 111.097 21.0546C111.615 20.8251 111.997 20.4926 112.245 20.057C112.497 19.6156 112.624 19.0741 112.624 18.4327C112.624 17.7911 112.497 17.2438 112.245 16.7906C111.991 16.3315 111.606 15.9843 111.088 15.7489C110.57 15.5076 109.902 15.3869 109.084 15.3869H106.082V30.7304H102.807ZM112.147 22.5378L116.624 30.7304H112.968L108.572 22.5378H112.147ZM131.368 12.6501H134.643V24.4623C134.643 25.7572 134.337 26.896 133.725 27.8789C133.118 28.8617 132.265 29.6298 131.165 30.1831C130.064 30.7304 128.778 31.0041 127.307 31.0041C125.829 31.0041 124.54 30.7304 123.44 30.1831C122.339 29.6298 121.486 28.8617 120.879 27.8789C120.273 26.896 119.971 25.7572 119.971 24.4623V12.6501H123.245V24.1887C123.245 24.942 123.41 25.613 123.74 26.2015C124.075 26.79 124.546 27.2521 125.153 27.5876C125.759 27.9171 126.477 28.0819 127.307 28.0819C128.137 28.0819 128.855 27.9171 129.46 27.5876C130.073 27.2521 130.544 26.79 130.873 26.2015C131.203 25.613 131.368 24.942 131.368 24.1887V12.6501ZM154.055 12.6501V30.7304H151.142L142.623 18.415H142.473V30.7304H139.197V12.6501H142.128L150.639 24.9744H150.798V12.6501H154.055ZM161.894 12.6501V30.7304H158.618V12.6501H161.894ZM168.757 30.7304H165.261L171.626 12.6501H175.67L182.044 30.7304H178.547L173.718 16.358H173.577L168.757 30.7304ZM168.872 23.6413H178.406V26.2721H168.872V23.6413Z" fill="white"/>
<path d="M65.0156 39.2678H66.797L69.1826 45.0906H69.2768L71.6625 39.2678H73.4435V47.3035H72.0472V41.7829H71.9726L69.7517 47.28H68.7078L66.487 41.7711H66.4125V47.3035H65.0156V39.2678ZM83.2986 39.2678H84.7543V44.5177C84.7543 45.0932 84.6182 45.5994 84.3462 46.0362C84.0768 46.473 83.6977 46.8144 83.2081 47.0602C82.7192 47.3035 82.1474 47.4251 81.4934 47.4251C80.8374 47.4251 80.2642 47.3035 79.7753 47.0602C79.2857 46.8144 78.9066 46.473 78.6372 46.0362C78.3679 45.5994 78.2333 45.0932 78.2333 44.5177V39.2678H79.689V44.3961C79.689 44.7309 79.7622 45.0291 79.9086 45.2907C80.0577 45.5523 80.267 45.7576 80.5363 45.9067C80.8056 46.0532 81.1247 46.1265 81.4934 46.1265C81.8622 46.1265 82.1819 46.0532 82.4512 45.9067C82.7233 45.7576 82.9326 45.5523 83.079 45.2907C83.2254 45.0291 83.2986 44.7309 83.2986 44.3961V39.2678ZM89.5406 47.3035V39.2678H90.9963V46.0833H94.5355V47.3035H89.5406ZM97.6251 40.4881V39.2678H104.036V40.4881H101.552V47.3035H100.108V40.4881H97.6251ZM109.932 39.2678V47.3035H108.477V39.2678H109.932ZM114.712 47.3035V39.2678H119.861V40.4881H116.168V42.6697H119.508V43.8899H116.168V47.3035H114.712ZM125.846 39.2678V47.3035H124.391V39.2678H125.846ZM137.23 39.2678V47.3035H135.936L132.15 41.83H132.083V47.3035H130.627V39.2678H131.93L135.713 44.7453H135.783V39.2678H137.23ZM143.053 47.3035H141.499L144.328 39.2678H146.126L148.958 47.3035H147.404L145.258 40.9158H145.195L143.053 47.3035ZM143.104 44.1528H147.342V45.3221H143.104V44.1528ZM159.824 39.2678V47.3035H158.53L154.743 41.83H154.676V47.3035H153.22V39.2678H154.524L158.306 44.7453H158.376V39.2678H159.824ZM171.493 41.9791H170.025C169.983 41.7385 169.907 41.5253 169.794 41.3395C169.681 41.1512 169.541 40.9916 169.374 40.8609C169.206 40.7301 169.016 40.632 168.801 40.5666C168.59 40.4986 168.36 40.4646 168.115 40.4646C167.677 40.4646 167.291 40.5744 166.953 40.7942C166.616 41.0113 166.352 41.3304 166.16 41.7515C165.97 42.1701 165.874 42.6814 165.874 43.2857C165.874 43.9004 165.97 44.4183 166.16 44.8395C166.354 45.258 166.618 45.5745 166.953 45.789C167.291 46.0008 167.677 46.1068 168.11 46.1068C168.351 46.1068 168.577 46.0754 168.786 46.0127C168.997 45.9473 169.187 45.8518 169.354 45.7262C169.525 45.6007 169.667 45.4463 169.782 45.2633C169.9 45.0801 169.981 44.8709 170.025 44.6355L171.493 44.6433C171.438 45.0252 171.319 45.3835 171.136 45.7183C170.956 46.0532 170.719 46.3488 170.426 46.6051C170.132 46.8589 169.79 47.0576 169.398 47.2015C169.005 47.3428 168.57 47.4134 168.091 47.4134C167.385 47.4134 166.754 47.2499 166.2 46.923C165.645 46.596 165.209 46.1238 164.89 45.5065C164.57 44.8892 164.41 44.1489 164.41 43.2857C164.41 42.4198 164.571 41.6796 164.893 41.0649C165.215 40.4476 165.653 39.9755 166.208 39.6485C166.762 39.3215 167.39 39.158 168.091 39.158C168.539 39.158 168.954 39.2208 169.339 39.3463C169.724 39.4719 170.066 39.6563 170.367 39.8996C170.668 40.1402 170.915 40.4358 171.108 40.7863C171.304 41.1342 171.433 41.5318 171.493 41.9791ZM176.03 47.3035V39.2678H181.257V40.4881H177.486V42.6697H180.986V43.8899H177.486V46.0833H181.288V47.3035H176.03Z" fill="white"/>
</g>
<defs>
<clipPath id="clip0_40_149">
<rect width="183" height="56.6264" fill="white"/>
</clipPath>
</defs>
</svg>
