<svg width="1068" height="265" viewBox="0 0 1068 265" fill="none" xmlns="http://www.w3.org/2000/svg">
<g clip-path="url(#clip0_124_2)">
<path fill-rule="evenodd" clip-rule="evenodd" d="M1155.25 324.5C1109.33 272.505 971.572 209.201 861.872 171.868C752.171 134.536 624.609 163.861 497.048 193.186C369.486 222.511 241.924 251.836 132.224 214.504C22.523 177.172 -69.3168 73.1817 -115.237 21.1867L-161.157 -30.8083L-101.621 -253L-45.7779 -238.037C10.0647 -223.074 121.75 -193.148 233.435 -163.222C345.12 -133.296 456.806 -103.37 568.491 -73.4441C680.176 -43.5181 791.862 -13.5921 903.547 16.3339C1015.23 46.2599 1126.92 76.1859 1182.76 91.1489L1238.6 106.112L1155.25 324.5Z" fill="#E0F3FF"/>
<path fill-rule="evenodd" clip-rule="evenodd" d="M1075 161.802L1025.83 144.377C976.667 126.952 878.333 92.1014 780 97.9097C681.667 103.718 583.333 150.185 485 167.61C386.667 185.035 288.333 173.419 190 150.185C91.6667 126.952 -6.66671 92.1014 -55.8334 74.6763L-105 57.2512L-105 -117L-55.8334 -117C-6.66672 -117 91.6667 -117 190 -117C288.333 -117 386.667 -117 485 -117C583.333 -117 681.667 -117 780 -117C878.333 -117 976.667 -117 1025.83 -117L1075 -117L1075 161.802Z" fill="#B3E1FF"/>
<path fill-rule="evenodd" clip-rule="evenodd" d="M1154 84.9264L1104.58 64.4387C1055.17 43.951 956.333 2.97553 857.5 19.6692C758.667 35.6041 659.833 82.6003 561 95.5C462.167 107.641 363.333 84.9264 264.5 60.6446C165.667 35.6041 66.8334 35.6041 17.4168 35.6041L-32 35.604L-32 -38L17.4168 -38C66.8334 -38 165.667 -38 264.5 -38C363.333 -38 462.167 -38 561 -37.9999C659.833 -37.9999 758.667 -37.9999 857.5 -37.9999C956.333 -37.9999 1055.17 -37.9999 1104.58 -37.9999L1154 -37.9999L1154 84.9264Z" fill="#9DD8FF"/>
</g>
<defs>
<clipPath id="clip0_124_2">
<rect width="1068" height="265" fill="white"/>
</clipPath>
</defs>
</svg>
